<svg xmlns="http://www.w3.org/2000/svg" width="100" height="102" viewBox="0 0 100 102">
    <g fill="none" fill-rule="evenodd">
        <g fill="#FFF">
            <g>
                <g>
                    <g>
                        <path d="M40 58.358c-3.806 0-5.963-2.142-6.891-3.379 1.512-.786 3.776-1.782 4.612-2.13.196-.083.571.013.979.247.417.241.898.319 1.228.34.048.004.096.004.144 0 .33-.021.81-.099 1.227-.34.408-.234.783-.33.98-.248.836.349 3.096 1.343 4.608 2.13-.934 1.234-3.103 3.38-6.887 3.38m3.098-7.475c-.843-.35-1.832-.223-2.86.368-.025.013-.11.04-.238.055-.127-.015-.213-.042-.237-.054-1.028-.593-2.018-.72-2.86-.37-.805.336-4.378 1.89-5.86 2.817-.465.29-.634.884-.39 1.375.109.22 2.755 5.414 9.347 5.414 6.593 0 9.238-5.193 9.348-5.414.243-.491.074-1.086-.39-1.375-1.483-.926-5.056-2.48-5.86-2.816zM43.069 62.003h-6.824c-.588 0-1.064.476-1.064 1.064 0 .588.476 1.065 1.064 1.065h6.824c.588 0 1.064-.477 1.064-1.065s-.476-1.064-1.064-1.064M54.666 32.872h-6.589c.173-2.006 1.862-3.586 3.913-3.586h6.59c-.174 2.006-1.863 3.586-3.914 3.586m4.992-5.715H51.99c-3.34 0-6.057 2.717-6.057 6.056v.724c0 .588.477 1.064 1.065 1.064h7.668c3.34 0 6.057-2.717 6.057-6.056v-.724c0-.588-.477-1.064-1.065-1.064M25.333 32.872c-2.05 0-3.739-1.58-3.912-3.586h6.59c2.05 0 3.739 1.58 3.912 3.586h-6.59zm8.734 1.065v-.724c0-3.34-2.717-6.056-6.057-6.056h-7.668c-.588 0-1.065.476-1.065 1.064v.724c0 3.34 2.717 6.056 6.056 6.056h7.67c.587 0 1.064-.476 1.064-1.064z" transform="translate(-490.000000, -202.000000) translate(360.000000, 158.000000) translate(130.000000, 44.000000) translate(10.000000, 0.000000)"/>
                        <path d="M75.533 38.087l-4.774-5.526c-1.108-1.282-1.108-3.447 0-4.729l.481-.558 5.923 6.855c.3 1.913.457 3.874.457 5.87 0 .167-.004.332-.006.497l-2.081-2.409zm1.125 10.405l-1.125-1.302v-.001l-4.774-5.526c-1.108-1.282-1.108-3.448 0-4.73l.481-.557 6.21 7.188c-.157 1.677-.422 3.322-.792 4.928zm-2.18 6.577L71.99 52.19l-1.231-1.425c-1.108-1.282-1.108-3.448 0-4.73l.481-.557 4.751 5.499c-.427 1.4-.933 2.766-1.514 4.092zm-3.002 5.537c-1.118-1.77-1.173-4.162-.204-5.99l2.208 2.556c-.608 1.183-1.278 2.328-2.004 3.434zm-6.268 7.318V12.075c1.6 1.445 3.074 3.025 4.406 4.723l-.467.54c-1.82 2.106-1.82 5.407 0 7.513l.687.794-.687.795c-1.82 2.106-1.82 5.407 0 7.513l.687.794-.687.795c-1.82 2.106-1.82 5.407 0 7.513l.687.794-.687.795c-1.82 2.106-1.82 5.406 0 7.513l.666.77c-1.847 2.715-1.828 6.54.148 9.237.073.1.163.177.26.243-1.487 2.001-3.167 3.85-5.013 5.517zm-2.13-54.419c0 .364-.023.723-.064 1.076C56.697 8.848 48.59 5.71 40 5.71c-8.599 0-16.698 3.14-23.014 8.874-.04-.355-.064-.714-.064-1.08V10.29C23.294 5.333 31.302 2.38 40 2.38c8.698 0 16.706 2.953 23.078 7.91v3.215zm-33.44-3.96C32.932 8.43 36.419 7.84 40 7.84c3.608 0 7.122.597 10.438 1.732-3.034 2.76-6.676 4.27-10.385 4.27-3.722 0-7.375-1.52-10.414-4.297zm33.44 23.069v.107c0 4.677-2.57 9.241-7.054 12.523-.474.348-.577 1.014-.23 1.488.209.285.532.436.86.436.218 0 .438-.067.628-.205 2.486-1.82 4.446-4.008 5.796-6.4v.012c0 7.087-2.675 13.832-7.532 18.992l-7.735 8.22c-2.019 2.145-4.866 3.375-7.811 3.375-2.945 0-5.792-1.23-7.81-3.375l-7.737-8.22c-4.857-5.16-7.531-11.905-7.531-18.992v-.012c1.35 2.392 3.31 4.58 5.796 6.4.19.138.41.205.628.205.328 0 .651-.15.86-.436.347-.474.244-1.14-.23-1.488-4.483-3.282-7.054-7.846-7.054-12.523V20.128c2.07 2.89 5.454 4.78 9.272 4.78h1.502c4.753 0 8.62 3.867 8.62 8.62v10.295c0 .588.477 1.065 1.064 1.065.588 0 1.065-.477 1.065-1.065V33.528c0-5.927-4.822-10.75-10.75-10.75h-1.5c-3.897 0-7.237-2.417-8.608-5.829 2.898-2.82 6.229-5.034 9.848-6.57 3.571 3.606 8.035 5.592 12.618 5.592 4.566 0 9.017-1.973 12.582-5.557 3.592 1.535 6.9 3.734 9.778 6.534-1.37 3.413-4.71 5.83-8.607 5.83h-1.502c-5.927 0-10.75 4.823-10.75 10.75v10.295c0 .588.477 1.065 1.065 1.065s1.065-.477 1.065-1.065V33.528c0-4.753 3.867-8.62 8.62-8.62h1.502c3.818 0 7.202-1.89 9.272-4.78v12.486zm0 37.095c-.567.442-1.148.866-1.74 1.276V55.46c0-.052-.008-.102-.016-.152.67-1.176 1.255-2.395 1.756-3.647v18.047zm-3.87 2.641c-.63.376-1.272.734-1.925 1.072V60.82c.684-.74 1.325-1.511 1.925-2.308V72.35zm-4.054 2.09c-.634.28-1.276.542-1.927.786V65.138l1.927-2.046V74.44zm-4.056 1.515C47.59 77.037 43.863 77.62 40 77.62c-3.85 0-7.565-.58-11.063-1.654v-8.528l1.702 1.808c2.419 2.57 5.831 4.045 9.36 4.045 3.53 0 6.943-1.474 9.362-4.045l1.737-1.845v8.554zm-24.29-.716c-.651-.243-1.293-.505-1.926-.783V63.13l1.926 2.047v10.063zm-4.055-1.798c-.654-.338-1.296-.696-1.926-1.07V58.56c.6.794 1.242 1.562 1.926 2.3v12.58zm-4.056-17.98V71.01c-.604-.417-1.197-.85-1.775-1.3V51.662c.508 1.271 1.104 2.508 1.785 3.701-.003.033-.01.065-.01.098zm-3.905-22.847v35.311c-1.846-1.668-3.526-3.517-5.012-5.518.096-.066.186-.143.26-.243 1.975-2.697 1.994-6.522.146-9.236l.667-.771c1.82-2.107 1.82-5.407 0-7.513l-.687-.795.687-.794c1.82-2.106 1.82-5.407 0-7.513l-.687-.794.687-.795c1.82-2.106 1.82-5.407 0-7.513l-.687-.795.687-.794c1.82-2.106 1.82-5.407 0-7.513l-.467-.54c1.332-1.698 2.807-3.278 4.406-4.723v20.539zM8.524 60.606c-.726-1.106-1.396-2.25-2.004-3.434l1.184-1.37 1.023-1.185c.97 1.827.915 4.22-.203 5.99zm-4.515-9.63l4.75-5.498.483.558c1.107 1.281 1.107 3.447 0 4.729L8.01 52.19l-2.487 2.88c-.58-1.327-1.088-2.692-1.514-4.093zm-1.46-7.412l6.21-7.188.483.558c1.107 1.281 1.107 3.447 0 4.729l-1.288 1.49-1.901 2.2-1.585 1.836-1.126 1.303c-.37-1.606-.635-3.251-.793-4.928zM2.379 40c0-1.997.158-3.958.458-5.87l5.922-6.856.483.558c1.107 1.282 1.107 3.447 0 4.73l-1.288 1.49-5.568 6.444c-.002-.165-.006-.33-.006-.496zM9.09 18.555l.152.175c1.107 1.282 1.107 3.447 0 4.729l-3.653 4.228-1.801 2.085c1.144-4.06 2.954-7.84 5.302-11.217zm61.669.175l.15-.175c2.349 3.378 4.159 7.157 5.303 11.217l-.68-.786-4.773-5.527c-1.108-1.282-1.108-3.447 0-4.73zM39.999.39C18.16.39.39 18.16.39 40S18.159 79.61 40 79.61c21.84 0 39.61-17.77 39.61-39.61S61.84.39 40 .39z" transform="translate(-490.000000, -202.000000) translate(360.000000, 158.000000) translate(130.000000, 44.000000) translate(10.000000, 0.000000)"/>
                    </g>
                    <path d="M0 101.579L1.559 101.579 1.559 93.127 0 93.127zM93.428 93.127l-3.699 8.452h1.666l.58-1.33h5.763l.58 1.33h1.636l-3.592-8.452h-2.934zm.948 1.39h.963l1.773 4.341h-4.555l1.819-4.34zM73.75 93.127L73.75 99.409 68.141 93.127 66.583 93.127 66.583 101.579 68.111 101.579 68.111 95.267 73.732 101.579 75.309 101.579 75.309 93.127zM44.14 93.127L44.14 101.578 51.935 101.578 51.935 100.157 45.699 100.157 45.699 97.956 51.11 97.956 51.11 96.566 45.699 96.566 45.699 94.518 51.706 94.518 51.706 93.127zM20.818 100.158h2.674c.448 0 .859-.069 1.23-.207.373-.139.691-.33.956-.575.264-.245.47-.542.619-.889.147-.347.221-.73.221-1.15 0-.418-.074-.801-.221-1.15-.148-.347-.355-.643-.62-.888s-.583-.437-.954-.575c-.372-.138-.782-.207-1.23-.207h-2.675v5.64zm2.705-7.031c.59 0 1.161.1 1.711.298.55.198 1.037.482 1.46.848.422.367.759.81 1.008 1.33.25.52.375 1.1.375 1.742 0 .642-.128 1.226-.382 1.75-.255.525-.59.971-1.009 1.338-.417.367-.9.65-1.45.848-.551.198-1.122.298-1.712.298h-4.265v-8.452h4.264z" transform="translate(-490.000000, -202.000000) translate(360.000000, 158.000000) translate(130.000000, 44.000000)"/>
                </g>
            </g>
        </g>
    </g>
</svg>
