<svg xmlns="http://www.w3.org/2000/svg" width="92" height="92" viewBox="0 0 92 92">
    <defs>
        <filter id="th7qjzjtga" width="105.7%" height="105.7%" x="-2.8%" y="-2.8%" filterUnits="objectBoundingBox">
            <feOffset in="SourceAlpha" result="shadowOffsetOuter1"/>
            <feGaussianBlur in="shadowOffsetOuter1" result="shadowBlurOuter1" stdDeviation=".5"/>
            <feColorMatrix in="shadowBlurOuter1" result="shadowMatrixOuter1" values="0 0 0 0 0 0 0 0 0 0 0 0 0 0 0 0 0 0 0.5 0"/>
            <feMerge>
                <feMergeNode in="shadowMatrixOuter1"/>
                <feMergeNode in="SourceGraphic"/>
            </feMerge>
        </filter>
    </defs>
    <g fill="none" fill-rule="evenodd">
        <g fill-rule="nonzero">
            <g filter="url(#th7qjzjtga)" transform="translate(-142.000000, -78.000000) translate(144.000000, 80.000000)">
                <path fill="#FFF" d="M43.96 88C19.72 88 0 68.262 0 44S19.72 0 43.96 0C68.2 0 87.92 19.738 87.92 44S68.2 88 43.96 88"/>
                <path fill="#000" d="M43.96 63.353c-4.009 0-6.28-2.258-7.258-3.562 1.592-.83 3.977-1.88 4.857-2.247.207-.087.602.014 1.031.262.44.254.946.335 1.294.359.05.003.101.003.152 0 .347-.024.853-.105 1.292-.359.43-.248.825-.348 1.032-.262.88.367 3.26 1.415 4.853 2.244-.984 1.302-3.268 3.565-7.253 3.565m9.433-4.913c-1.561-.975-5.323-2.614-6.17-2.968-.889-.369-1.93-.235-3.014.389-.025.013-.115.042-.25.057-.134-.015-.224-.044-.249-.057-1.083-.624-2.125-.759-3.013-.389-.847.354-4.61 1.993-6.171 2.968-.49.306-.667.933-.412 1.45.116.233 2.902 5.707 9.846 5.707 6.943 0 9.73-5.474 9.845-5.707.256-.517.078-1.144-.412-1.45M59.406 36.486h-6.94c.183-2.115 1.961-3.78 4.121-3.78h6.94c-.182 2.114-1.961 3.78-4.12 3.78m5.257-6.025h-8.077c-3.517 0-6.378 2.864-6.378 6.384v.763c0 .62.501 1.123 1.12 1.123h8.077c3.517 0 6.379-2.864 6.379-6.385v-.763c0-.62-.502-1.122-1.121-1.122M28.513 36.486c-2.16 0-3.938-1.666-4.121-3.78h6.94c2.16 0 3.938 1.665 4.12 3.78h-6.94zm9.198 1.122v-.763c0-3.52-2.862-6.384-6.379-6.384h-8.077c-.619 0-1.12.502-1.12 1.122v.763c0 3.52 2.86 6.385 6.378 6.385h8.076c.62 0 1.122-.503 1.122-1.123zM47.191 67.194h-7.186c-.62 0-1.12.503-1.12 1.122 0 .62.5 1.123 1.12 1.123h7.186c.62 0 1.122-.502 1.122-1.123 0-.62-.502-1.122-1.122-1.122"/>
                <path fill="#000" d="M40.345 60.178c0 .62.502 1.122 1.121 1.122h4.987c.62 0 1.121-.502 1.121-1.122 0-.62-.502-1.122-1.121-1.122h-4.987c-.619 0-1.12.502-1.12 1.122"/>
                <path fill="#000" d="M81.383 41.984l-5.029-5.826c-1.166-1.35-1.166-3.634 0-4.985l.508-.588L83.1 37.81c.316 2.017.48 4.084.48 6.189 0 .175-.003.349-.006.523l-2.191-2.54zm1.184 10.968l-1.184-1.373-5.029-5.826c-1.166-1.351-1.166-3.634 0-4.985l.508-.588 6.54 7.577c-.165 1.767-.444 3.502-.835 5.195zm-2.296 6.934l-2.62-3.035-1.297-1.503c-1.166-1.351-1.166-3.634 0-4.985l.508-.589 5.004 5.797c-.45 1.477-.984 2.917-1.595 4.315zm-3.16 5.837c-1.179-1.866-1.236-4.389-.215-6.315l2.325 2.694c-.64 1.247-1.346 2.455-2.11 3.62zm-6.603 7.714V14.563c1.685 1.523 3.239 3.188 4.641 4.978l-.491.57c-1.917 2.22-1.917 5.699 0 7.92l.723.837-.723.838c-1.917 2.22-1.917 5.699 0 7.92l.722.837-.722.837c-1.917 2.22-1.917 5.7 0 7.92l.722.838-.722.837c-1.917 2.22-1.917 5.7 0 7.92l.701.813c-1.945 2.861-1.926 6.894.155 9.737.077.105.172.186.274.256-1.566 2.11-3.335 4.058-5.28 5.816zM68.266 16.07c0 .384-.025.762-.068 1.134-6.653-6.043-15.192-9.35-24.238-9.35-9.057 0-17.586 3.309-24.238 9.354-.044-.374-.069-.753-.069-1.138v-3.389c6.712-5.225 15.145-8.339 24.307-8.339 9.16 0 17.595 3.114 24.306 8.34v3.388zm-35.219-4.174c3.468-1.177 7.14-1.798 10.913-1.798 3.8 0 7.5.63 10.993 1.825-3.195 2.91-7.032 4.502-10.938 4.502-3.92 0-7.766-1.602-10.968-4.53zm35.219 24.318v.113c0 4.93-2.708 9.741-7.43 13.202-.5.366-.608 1.068-.242 1.568.22.3.56.46.905.46.23 0 .462-.071.662-.218 2.618-1.918 4.682-4.224 6.105-6.746v.013c0 7.47-2.818 14.581-7.933 20.021l-8.147 8.665c-2.126 2.26-5.125 3.558-8.226 3.558-3.102 0-6.1-1.297-8.227-3.558l-8.147-8.665c-5.115-5.44-7.933-12.55-7.933-20.021v-.013c1.423 2.522 3.487 4.828 6.105 6.746.2.147.432.217.662.217.345 0 .686-.159.905-.459.366-.5.258-1.202-.242-1.568-4.721-3.46-7.43-8.272-7.43-13.202V23.052c2.18 3.047 5.744 5.038 9.766 5.038H31c5.007 0 9.08 4.077 9.08 9.088V48.03c0 .62.502 1.122 1.12 1.122.62 0 1.122-.502 1.122-1.122V37.178c0-6.249-5.079-11.332-11.322-11.332h-1.58c-4.104 0-7.622-2.548-9.065-6.145 3.051-2.973 6.56-5.307 10.372-6.926 3.76 3.801 8.462 5.894 13.288 5.894 4.81 0 9.497-2.08 13.252-5.857 3.783 1.617 7.268 3.936 10.298 6.887-1.443 3.598-4.961 6.147-9.065 6.147h-1.581c-6.243 0-11.322 5.083-11.322 11.332V48.03c0 .62.502 1.122 1.121 1.122.62 0 1.121-.502 1.121-1.122V37.178c0-5.011 4.074-9.088 9.08-9.088h1.58c4.023 0 7.586-1.991 9.767-5.038v13.162zm0 39.105c-.598.465-1.21.913-1.834 1.344V60.299c0-.055-.008-.108-.016-.161.705-1.24 1.322-2.524 1.85-3.845V75.32zm-4.076 2.784c-.664.395-1.34.772-2.028 1.13V65.946c.72-.78 1.396-1.592 2.028-2.432v14.588zm-4.27 2.203c-.668.294-1.344.57-2.03.828V70.5l2.03-2.158v11.964zm-4.272 1.597c-3.695 1.14-7.62 1.755-11.688 1.755-4.055 0-7.968-.611-11.652-1.744v-8.99L34.1 74.83c2.549 2.71 6.142 4.264 9.86 4.264 3.717 0 7.31-1.554 9.858-4.264l1.83-1.945v9.018zm-25.583-.755c-.685-.257-1.361-.532-2.028-.826v-11.94l2.028 2.157v10.61zm-4.27-1.896c-.689-.356-1.365-.733-2.029-1.127v-14.56c.633.837 1.308 1.646 2.029 2.424v13.263zm-4.271-18.953v16.39c-.637-.44-1.261-.896-1.87-1.37V56.293c.535 1.34 1.162 2.645 1.88 3.902-.003.035-.01.068-.01.104zM17.41 36.214v37.223c-1.945-1.758-3.714-3.707-5.28-5.816.102-.07.197-.151.274-.256 2.081-2.843 2.1-6.875.155-9.737l.702-.813c1.917-2.22 1.917-5.7 0-7.92l-.723-.837.723-.838c1.917-2.22 1.917-5.7 0-7.92l-.723-.837.723-.838c1.917-2.22 1.917-5.7 0-7.92l-.723-.837.723-.838c1.917-2.22 1.917-5.7 0-7.92l-.492-.57c1.403-1.789 2.956-3.454 4.641-4.977v21.65zm-6.602 29.509c-.765-1.166-1.47-2.373-2.11-3.62l1.247-1.446 1.077-1.248c1.022 1.926.964 4.448-.214 6.314zM6.054 55.57l5.003-5.797.508.589c1.166 1.35 1.166 3.634 0 4.985l-1.297 1.503-2.62 3.035c-.611-1.398-1.145-2.838-1.594-4.315zm-1.538-7.814l6.541-7.577.508.588c1.166 1.35 1.166 3.634 0 4.985l-1.356 1.571-2.002 2.32-1.67 1.934-1.185 1.374c-.39-1.693-.67-3.427-.836-5.195zM4.338 44c0-2.105.166-4.172.481-6.189l6.238-7.226.508.588c1.166 1.351 1.166 3.634 0 4.985l-1.356 1.571-5.864 6.794c-.002-.174-.007-.348-.007-.523zm7.067-22.607l.16.185c1.166 1.35 1.166 3.634 0 4.985L7.718 31.02 5.82 33.218c1.205-4.28 3.111-8.264 5.584-11.825zm64.95.185l.159-.185c2.473 3.561 4.379 7.546 5.584 11.825l-.715-.829-5.029-5.826c-1.166-1.351-1.166-3.634 0-4.985zM43.96 2.244C20.957 2.244 2.242 20.976 2.242 44S20.957 85.755 43.96 85.755c23.003 0 41.717-18.731 41.717-41.755S66.963 2.244 43.96 2.244z"/>
            </g>
        </g>
    </g>
</svg>
