<?xml version="1.0" encoding="UTF-8"?>
<svg width="28px" height="28px" viewBox="0 0 28 28" version="1.1" xmlns="http://www.w3.org/2000/svg" xmlns:xlink="http://www.w3.org/1999/xlink">
    <title>Rectangle</title>
    <g id="Idena" stroke="none" stroke-width="1" fill="none" fill-rule="evenodd">
        <g id="01_Authorization/02b_private_key_pasted" transform="translate(-289.000000, -282.000000)">
            <g id="Group-2" transform="translate(48.000000, 272.000000)">
                <g id="Group" transform="translate(241.000000, 10.000000)">
                    <rect id="Rectangle" fill="#D8D8D8" opacity="0" x="0" y="0" width="28" height="28"></rect>
                    <path d="M5,17 L5,21 C5,22.0543618 5.81587779,22.9181651 6.85073766,22.9945143 L7,23 L11,23 L11,25 L7,25 C4.85780461,25 3.10892112,23.3160315 3.00489531,21.1996403 L3,21 L3,17 L5,17 Z M25,17 L25,21 C25,23.1421954 23.3160315,24.8910789 21.1996403,24.9951047 L21,25 L17,25 L17,23 L21,23 C22.0543618,23 22.9181651,22.1841222 22.9945143,21.1492623 L23,21 L23,17 L25,17 Z M15.4361148,9 C16.3998961,9 16.9133638,9.09915518 17.4484446,9.38531951 C17.948639,9.6528264 18.3471736,10.051361 18.6146805,10.5515554 C18.8769978,11.0420461 18.9821755,11.5143758 18.9978834,12.3320483 L19,12.5638852 L19,15.4361148 C19,16.3998961 18.9008448,16.9133638 18.6146805,17.4484446 C18.3471736,17.948639 17.948639,18.3471736 17.4484446,18.6146805 C16.9579539,18.8769978 16.4856242,18.9821755 15.6679517,18.9978834 L15.4361148,19 L12.5638852,19 C11.6001039,19 11.0866362,18.9008448 10.5515554,18.6146805 C10.051361,18.3471736 9.6528264,17.948639 9.38531951,17.4484446 C9.12300221,16.9579539 9.01782454,16.4856242 9.00211657,15.6679517 L9,15.4361148 L9,12.5638852 C9,11.6001039 9.09915518,11.0866362 9.38531951,10.5515554 C9.6528264,10.051361 10.051361,9.6528264 10.5515554,9.38531951 C11.0420461,9.12300221 11.5143758,9.01782454 12.3320483,9.00211657 L12.5638852,9 L15.4361148,9 Z M15.6055565,11.0009892 L12.3944435,11.0009892 L12.0890744,11.0108282 C11.7835937,11.0289037 11.6402171,11.0711509 11.4947532,11.1489459 C11.3430957,11.2300532 11.2300532,11.3430957 11.1489459,11.4947532 C11.1114376,11.5648876 11.0821928,11.6345367 11.0599365,11.7221032 L11.0399624,11.8163237 L11.0169874,12.0021292 L11.0093378,12.1156593 L11.0009892,12.3944435 L11.0009892,15.6055565 L11.0108282,15.9109256 C11.0289037,16.2164063 11.0711509,16.3597829 11.1489459,16.5052468 C11.2300532,16.6569043 11.3430957,16.7699468 11.4947532,16.8510541 C11.5648876,16.8885624 11.6345367,16.9178072 11.7221032,16.9400635 L11.8163237,16.9600376 L12.0021292,16.9830126 L12.1156593,16.9906622 L12.3944435,16.9990108 L15.6055565,16.9990108 L15.9430428,16.9871421 L15.9430428,16.9871421 L15.9978708,16.9830126 L16.1836763,16.9600376 C16.3190844,16.9363856 16.4117343,16.9010651 16.5052468,16.8510541 C16.6569043,16.7699468 16.7699468,16.6569043 16.8510541,16.5052468 C16.8885624,16.4351124 16.9178072,16.3654633 16.9400635,16.2778968 L16.9600376,16.1836763 L16.9830126,15.9978708 L16.9906622,15.8843407 L16.9990108,15.6055565 L16.9990108,12.3944435 L16.9871421,12.0569572 L16.9871421,12.0569572 L16.9830126,12.0021292 L16.9600376,11.8163237 C16.9363856,11.6809156 16.9010651,11.5882657 16.8510541,11.4947532 C16.7699468,11.3430957 16.6569043,11.2300532 16.5052468,11.1489459 C16.4351124,11.1114376 16.3654633,11.0821928 16.2778968,11.0599365 L16.1836763,11.0399624 L15.9978708,11.0169874 L15.8843407,11.0093378 L15.6055565,11.0009892 Z M11,3 L11,5 L7,5 C5.9456382,5 5.08183488,5.81587779 5.00548574,6.85073766 L5,7 L5,11 L3,11 L3,7 C3,4.85780461 4.68396847,3.10892112 6.80035966,3.00489531 L7,3 L11,3 Z M21,3 C23.1421954,3 24.8910789,4.68396847 24.9951047,6.80035966 L25,7 L25,11 L23,11 L23,7 C23,5.9456382 22.1841222,5.08183488 21.1492623,5.00548574 L21,5 L17,5 L17,3 L21,3 Z" id="Shape" fill="#E8EAED" fill-rule="nonzero" opacity="0.16"></path>
                </g>
            </g>
        </g>
    </g>
</svg>